<?xml version="1.0"?>
<svg width="399" height="201" xmlns="http://www.w3.org/2000/svg" xmlns:svg="http://www.w3.org/2000/svg" xmlns:xlink="http://www.w3.org/1999/xlink">
 <defs>
  <clipPath id="clip0_7197_198312">
   <rect fill="white" height="74.93" id="svg_1" transform="translate(27.314 99.1738)" width="346.47"/>
  </clipPath>
  <symbol aria-label="Ethereum" id="svg_198" viewBox="0 0 512 512" xmlns="http://www.w3.org/2000/svg">
   <rect fill="#ffffff" height="512" rx="15%" width="512"/>
   <path d="m256,362l0,107l131,-185l-131,78z" fill="#3C3C3B"/>
   <path d="m256,41l131,218l-131,78l-132,-78" fill="#343434"/>
   <path d="m256,41l0,158l-132,60m0,25l132,78l0,107" fill="#8C8C8C"/>
   <path d="m256,199l0,138l131,-78" fill="#141414"/>
   <path d="m124,259l132,-60l0,138" fill="#393939"/>
  </symbol>
 </defs>
 <g class="layer">
  <title>Layer 1</title>
  <path clip-rule="evenodd" d="m213.5,106.28c-1.78,-0.18 -3.55,-0.48 -5.3,-0.88c-7.37,-1.85 -15.21,-6.48 -21.49,-13.93c-0.23,-0.27 -0.39,-0.58 -0.49,-0.92c-0.09,-0.33 -0.12,-0.69 -0.07,-1.03c0.04,-0.35 0.16,-0.68 0.34,-0.98c0.18,-0.29 0.42,-0.55 0.71,-0.75l6.63,-4.82c1.2,-0.87 0.99,-1.81 -0.46,-2.11l-29.44,-5.96c-0.33,-0.07 -0.68,-0.07 -1.01,0c-0.33,0.08 -0.65,0.22 -0.92,0.42c-0.27,0.2 -0.5,0.46 -0.67,0.76c-0.17,0.29 -0.27,0.62 -0.31,0.96l-3.45,29.84c-0.17,1.49 0.66,1.98 1.86,1.09l4.45,-3.23c0.6,-0.41 1.32,-0.6 2.04,-0.51c0.72,0.08 1.39,0.43 1.87,0.97c7.91,8.94 16.9,14.97 25.69,17.14c1.74,0.41 3.51,0.7 5.29,0.87c3.75,0.37 7.54,0.23 11.26,-0.41c1.75,-0.36 3.48,-0.83 5.18,-1.38c2.67,-0.9 5.26,-2.02 7.74,-3.35c1.58,-0.84 3.09,-1.8 4.53,-2.86c3.42,-2.7 7.74,-7.38 9.66,-10.9c0.15,-0.26 0.28,-0.59 0.4,-0.93c0.34,-0.99 -0.78,-1.91 -1.74,-1.51c-8.4,3.53 -14.76,5.13 -22.3,4.41zm24.76,-5.46c0,0 0.01,-0.01 0.01,-0.01l0.02,0c0.01,0 0.02,0 0.02,-0.02c0,-0.08 -0.02,-0.06 -0.04,0.03c0,0 -0.01,0 -0.01,0zm6.32,-51.34l-4.45,3.23c-0.6,0.42 -1.32,0.6 -2.04,0.51c-0.72,-0.08 -1.39,-0.43 -1.87,-0.97c-7.91,-8.94 -16.9,-14.96 -25.69,-17.14c-1.75,-0.41 -3.53,-0.7 -5.32,-0.87c-3.75,-0.37 -7.54,-0.23 -11.25,0.41c-1.76,0.36 -3.49,0.82 -5.19,1.37c-2.67,0.9 -5.25,2.02 -7.74,3.35c-1.58,0.84 -3.09,1.8 -4.53,2.86c-3.42,2.7 -7.74,7.38 -9.66,10.92c-0.16,0.3 -0.31,0.6 -0.44,0.91c-0.55,1.32 0.47,2.08 1.79,1.54c8.45,-3.53 14.82,-5.13 22.35,-4.41c1.78,0.18 3.55,0.47 5.29,0.87c7.38,1.84 15.21,6.47 21.49,13.92c0.23,0.27 0.39,0.58 0.49,0.92c0.09,0.33 0.12,0.69 0.07,1.03c-0.04,0.35 -0.16,0.68 -0.34,0.98c-0.18,0.29 -0.42,0.55 -0.71,0.75l-6.63,4.82c-1.2,0.87 -0.99,1.81 0.46,2.11l29.44,5.96c0.34,0.07 0.68,0.08 1.02,0.01c0.33,-0.07 0.65,-0.21 0.93,-0.42c0.28,-0.2 0.51,-0.46 0.68,-0.75c0.17,-0.3 0.28,-0.63 0.31,-0.98l3.42,-29.84c0.15,-1.47 -0.68,-1.96 -1.88,-1.09z" fill="#E2E8F0" fill-rule="evenodd" id="svg_2"/>
  <path d="m312.87,96.86c0,16.23 -13.1,29.39 -29.24,29.39c-16.15,0 -29.25,-13.16 -29.25,-29.39c0,-16.23 13.1,-29.39 29.25,-29.39c16.14,0 29.24,13.16 29.24,29.39z" fill="#E2E8F0" id="svg_3" transform="matrix(1 0 0 1 0 0)"/>
  <path d="m150.6,58.29c0,16.23 -13.1,29.39 -29.24,29.39c-16.15,0 -29.25,-13.16 -29.25,-29.39c0,-16.23 13.1,-29.39 29.25,-29.39c16.14,0 29.24,13.16 29.24,29.39z" fill="#E2E8F0" id="svg_4"/>
  <line id="svg_5" stroke="black" stroke-opacity="0.04" x1="200" x2="1" y1="0.5" y2="0.5"/>
  <line id="svg_6" stroke="black" stroke-opacity="0.04" x1="200" x2="1" y1="25.5" y2="25.5"/>
  <line id="svg_7" stroke="black" stroke-opacity="0.04" x1="200" x2="1" y1="50.5" y2="50.5"/>
  <line id="svg_8" stroke="black" stroke-opacity="0.04" x1="199.5" x2="199.5" y1="200" y2="0"/>
  <line id="svg_9" stroke="black" stroke-opacity="0.04" x1="200" x2="1" y1="75.5" y2="75.5"/>
  <line id="svg_10" stroke="black" stroke-opacity="0.04" x1="174.63" x2="174.63" y1="200" y2="0"/>
  <line id="svg_11" stroke="black" stroke-opacity="0.04" x1="200" x2="1" y1="100.5" y2="100.5"/>
  <line id="svg_12" stroke="black" stroke-opacity="0.04" x1="149.75" x2="149.75" y1="200" y2="0"/>
  <line id="svg_13" stroke="black" stroke-opacity="0.04" x1="200" x2="1" y1="125.5" y2="125.5"/>
  <line id="svg_14" stroke="black" stroke-opacity="0.04" x1="124.88" x2="124.88" y1="200" y2="0"/>
  <line id="svg_15" stroke="black" stroke-opacity="0.04" x1="200" x2="1" y1="150.5" y2="150.5"/>
  <line id="svg_16" stroke="black" stroke-opacity="0.04" x1="100" x2="100" y1="200" y2="0"/>
  <line id="svg_17" stroke="black" stroke-opacity="0.04" x1="200" x2="1" y1="175.5" y2="175.5"/>
  <line id="svg_18" stroke="black" stroke-opacity="0.04" x1="75.13" x2="75.13" y1="200" y2="0"/>
  <line id="svg_19" stroke="black" stroke-opacity="0.04" x1="200" x2="1" y1="200.5" y2="200.5"/>
  <line id="svg_20" stroke="black" stroke-opacity="0.04" x1="50.25" x2="50.25" y1="200" y2="0"/>
  <line id="svg_21" stroke="black" stroke-opacity="0.04" x1="25.38" x2="25.38" y1="200" y2="0"/>
  <line id="svg_22" stroke="black" stroke-opacity="0.04" x1="0.5" x2="0.5" y1="200" y2="0"/>
  <line id="svg_23" stroke="black" stroke-opacity="0.04" x1="399" x2="200" y1="0.5" y2="0.5"/>
  <line id="svg_24" stroke="black" stroke-opacity="0.04" x1="399" x2="200" y1="25.5" y2="25.5"/>
  <line id="svg_25" stroke="black" stroke-opacity="0.04" x1="399" x2="200" y1="50.5" y2="50.5"/>
  <line id="svg_26" stroke="black" stroke-opacity="0.04" x1="398.5" x2="398.5" y1="200" y2="0"/>
  <line id="svg_27" stroke="black" stroke-opacity="0.04" x1="399" x2="200" y1="75.5" y2="75.5"/>
  <line id="svg_28" stroke="black" stroke-opacity="0.04" x1="373.63" x2="373.63" y1="200" y2="0"/>
  <line id="svg_29" stroke="black" stroke-opacity="0.04" x1="399" x2="200" y1="100.5" y2="100.5"/>
  <line id="svg_30" stroke="black" stroke-opacity="0.04" x1="348.75" x2="348.75" y1="200" y2="0"/>
  <line id="svg_31" stroke="black" stroke-opacity="0.04" x1="399" x2="200" y1="125.5" y2="125.5"/>
  <line id="svg_32" stroke="black" stroke-opacity="0.04" x1="323.88" x2="323.88" y1="200" y2="0"/>
  <line id="svg_33" stroke="black" stroke-opacity="0.04" x1="399" x2="200" y1="150.5" y2="150.5"/>
  <line id="svg_34" stroke="black" stroke-opacity="0.04" x1="299" x2="299" y1="200" y2="0"/>
  <line id="svg_35" stroke="black" stroke-opacity="0.04" x1="399" x2="200" y1="175.5" y2="175.5"/>
  <line id="svg_36" stroke="black" stroke-opacity="0.04" x1="274.13" x2="274.13" y1="200" y2="0"/>
  <line id="svg_37" stroke="black" stroke-opacity="0.04" x1="399" x2="200" y1="200.5" y2="200.5"/>
  <line id="svg_38" stroke="black" stroke-opacity="0.04" x1="249.25" x2="249.25" y1="200" y2="0"/>
  <line id="svg_39" stroke="black" stroke-opacity="0.04" x1="224.38" x2="224.38" y1="200" y2="0"/>
  <line id="svg_40" stroke="black" stroke-opacity="0.04" x1="199.5" x2="199.5" y1="200" y2="0"/>
  <path d="m305.81,93.11c0,15.52 -12.52,28.1 -27.96,28.1c-15.45,0 -27.96,-12.58 -27.96,-28.1c0,-15.52 12.51,-28.1 27.96,-28.1c15.44,0 27.96,12.58 27.96,28.1z" fill="white" id="svg_187"/>
  <path d="m144.63,55.1c0,15.82 -12.76,28.65 -28.51,28.65c-15.74,0 -28.5,-12.83 -28.5,-28.65c0,-15.83 12.76,-28.65 28.5,-28.65c15.75,0 28.51,12.82 28.51,28.65z" fill="white" id="svg_188"/>
  <path clip-rule="evenodd" d="m210.45,99.79c-1.78,-0.18 -3.55,-0.47 -5.29,-0.87c-7.38,-1.86 -15.21,-6.49 -21.5,-13.94c-0.22,-0.27 -0.39,-0.58 -0.48,-0.91c-0.1,-0.34 -0.13,-0.69 -0.08,-1.04c0.05,-0.34 0.16,-0.67 0.35,-0.97c0.18,-0.3 0.42,-0.56 0.7,-0.75l6.63,-4.83c1.21,-0.86 0.99,-1.81 -0.45,-2.11l-29.45,-5.95c-0.33,-0.08 -0.67,-0.07 -1.01,0c-0.33,0.07 -0.64,0.21 -0.92,0.41c-0.27,0.2 -0.5,0.46 -0.67,0.76c-0.17,0.3 -0.27,0.63 -0.3,0.97l-3.46,29.83c-0.17,1.49 0.67,1.99 1.87,1.09l4.44,-3.23c0.6,-0.41 1.33,-0.59 2.05,-0.51c0.72,0.09 1.38,0.43 1.87,0.97c7.9,8.94 16.89,14.97 25.68,17.15c1.75,0.4 3.51,0.69 5.29,0.87c3.76,0.37 7.54,0.23 11.26,-0.42c1.75,-0.36 3.48,-0.82 5.18,-1.38c2.67,-0.9 5.26,-2.02 7.74,-3.34c1.58,-0.84 3.1,-1.8 4.54,-2.87c3.41,-2.7 7.74,-7.38 9.66,-10.9c0.14,-0.26 0.27,-0.58 0.39,-0.93c0.34,-0.99 -0.77,-1.91 -1.74,-1.5c-8.4,3.52 -14.76,5.12 -22.3,4.4zm24.77,-5.46c0,0 0,0 0,0l0.02,0c0.01,0 0.02,-0.01 0.02,-0.02c0,-0.09 -0.01,-0.07 -0.04,0.02c0,0 0,0 0,0zm6.31,-51.34l-4.44,3.24c-0.6,0.41 -1.33,0.59 -2.05,0.51c-0.72,-0.09 -1.38,-0.43 -1.87,-0.98c-7.9,-8.93 -16.9,-14.96 -25.68,-17.14c-1.76,-0.4 -3.53,-0.69 -5.33,-0.87c-3.75,-0.37 -7.53,-0.23 -11.25,0.42c-1.75,0.36 -3.49,0.81 -5.19,1.37c-2.66,0.9 -5.25,2.02 -7.74,3.34c-1.57,0.84 -3.09,1.8 -4.53,2.86c-3.42,2.71 -7.74,7.39 -9.66,10.93c-0.16,0.29 -0.31,0.6 -0.44,0.91c-0.55,1.32 0.47,2.07 1.79,1.53c8.45,-3.53 14.82,-5.13 22.36,-4.41c1.78,0.18 3.54,0.48 5.28,0.88c7.38,1.83 15.21,6.47 21.5,13.92c0.22,0.27 0.38,0.58 0.48,0.91c0.1,0.34 0.12,0.69 0.08,1.03c-0.05,0.35 -0.17,0.68 -0.35,0.98c-0.18,0.3 -0.42,0.55 -0.71,0.75l-6.63,4.82c-1.2,0.87 -0.99,1.82 0.46,2.11l29.45,5.96c0.33,0.08 0.68,0.08 1.01,0.01c0.34,-0.07 0.65,-0.21 0.93,-0.41c0.28,-0.2 0.51,-0.46 0.68,-0.76c0.17,-0.3 0.28,-0.63 0.31,-0.97l3.43,-29.84c0.14,-1.48 -0.69,-1.97 -1.89,-1.1z" fill="#000000" fill-rule="evenodd" id="svg_189"/>
  <path clip-rule="evenodd" d="m115.76,81.05c14.47,0 26.19,-11.78 26.19,-26.32c0,-14.53 -11.72,-26.32 -26.19,-26.32c-14.46,0 -26.19,11.79 -26.19,26.32c0,14.54 11.73,26.32 26.19,26.32zm0,3.07c16.15,0 29.24,-13.16 29.24,-29.39c0,-16.23 -13.09,-29.39 -29.24,-29.39c-16.15,0 -29.24,13.16 -29.24,29.39c0,16.23 13.09,29.39 29.24,29.39z" fill="#FAAD14" fill-rule="evenodd" id="svg_196"/>
  <path d="m126.73,48.04c-0.37,-3.91 -3.73,-5.22 -7.97,-5.59l0,-2.51l-3.28,0l0,2.36c-0.87,0 -1.75,0.02 -2.63,0.04l0,-2.4l-3.28,0l0,2.5c-0.71,0.02 -5.07,0.01 -5.07,0.01l-0.01,2.91l2.73,0.02l0,19.06l-2.73,0l-0.03,2.87c0.8,0 4.34,0.02 5.1,0.02l0,2.47l3.29,0l0,-2.41c0.9,0.02 1.77,0.03 2.62,0.03l0,2.39l3.28,0l0,-2.47c5.52,-0.31 9.39,-1.71 9.87,-6.92c0.39,-4.19 -1.57,-6.06 -4.71,-6.82c1.91,-0.98 3.1,-2.7 2.82,-5.56l0,0zm-4.6,11.73c0,4.1 -6.98,3.63 -9.21,3.63l0,-7.27c2.23,0 9.2,-0.64 9.21,3.64l0,0zm-1.52,-10.25c0,3.72 -5.83,3.29 -7.69,3.29l0,-6.59c1.86,0 7.69,-0.59 7.69,3.3z" fill="#FAAD14" id="svg_197"/>
  <use id="svg_199" transform="matrix(1 0 0 1 0 0) matrix(0.192737 0 0 0.201692 16.1618 15.5763)" x="1154.39" xlink:href="#svg_198" y="279.16"/>
  <path clip-rule="evenodd" d="m278.03,119.62c14.47,0 26.19,-11.78 26.19,-26.32c0,-14.54 -11.72,-26.32 -26.19,-26.32c-14.46,0 -26.19,11.78 -26.19,26.32c0,14.54 11.73,26.32 26.19,26.32zm0,3.07c16.15,0 29.24,-13.16 29.24,-29.39c0,-16.23 -13.09,-29.39 -29.24,-29.39c-16.15,0 -29.24,13.16 -29.24,29.39c0,16.23 13.09,29.39 29.24,29.39z" fill="#000000" fill-rule="evenodd" id="svg_190"/>
 </g>
</svg>